<?xml version="1.0"?>
<svg xmlns="http://www.w3.org/2000/svg" xmlns:xlink="http://www.w3.org/1999/xlink" xmlns:svgjs="http://svgjs.com/svgjs" version="1.1" width="512" height="512" x="0" y="0" viewBox="0 0 384 384" style="enable-background:new 0 0 512 512" xml:space="preserve" class=""><g><g xmlns="http://www.w3.org/2000/svg" fill="#607d8b"><path d="m352 0h-320c-17.664062 0-32 14.335938-32 32v21.332031c0 17.664063 14.335938 32 32 32h320c17.664062 0 32-14.335937 32-32v-21.332031c0-17.664062-14.335938-32-32-32zm0 0" fill="#525252" data-original="#607d8b" style="" class=""/><path d="m352 128h-320c-17.664062 0-32 14.335938-32 32v21.332031c0 17.664063 14.335938 32 32 32h320c17.664062 0 32-14.335937 32-32v-21.332031c0-17.664062-14.335938-32-32-32zm0 0" fill="#525252" data-original="#607d8b" style="" class=""/><path d="m352 256h-320c-17.664062 0-32 14.335938-32 32v21.332031c0 17.664063 14.335938 32 32 32h320c17.664062 0 32-14.335937 32-32v-21.332031c0-17.664062-14.335938-32-32-32zm0 0" fill="#525252" data-original="#607d8b" style="" class=""/></g></g></svg>
