<svg height="512" viewBox="0 0 60 60" width="512" xmlns="http://www.w3.org/2000/svg"><g id="Page-1" fill="none" fill-rule="evenodd"><g id="006---Draw-Blueprint" fill-rule="nonzero"><path id="Shape" d="m59 17v40c-.0032948 1.1032019-.8967981 1.9967052-2 2h-48.71c-3.85271026.0547023-7.06562424-2.9334399-7.29-6.78v-.22c0-3.8659932 3.13400675-7 7-7h2c1.1032019-.0032948 1.9967052-.8967981 2-2v-28h45c1.1032019.0032948 1.9967052.8967981 2 2z" fill="#ffdc00"/><path id="Shape" d="m57 15h-3c1.1032019.0032948 1.9967052.8967981 2 2v40c-.0032948 1.1032019-.8967981 1.9967052-2 2h3c1.1032019-.0032948 1.9967052-.8967981 2-2v-40c-.0032948-1.1032019-.8967981-1.9967052-2-2z" fill="#fec108"/><path id="Shape" d="m12 3v40c-.0032948 1.1032019-.8967981 1.9967052-2 2h-2c-3.86599325 0-7 3.1340068-7 7v-44c0-3.86599325 3.13400675-7 7-7h2c1.1032019.0032948 1.9967052.89679813 2 2z" fill="#ffeb3a"/><path id="Shape" d="m10 1h-2c-.226 0-.448.013-.669.034.96097467.16126003 1.6658715.99159386 1.669 1.966v40c-.0032948 1.1032019-.89679813 1.9967052-2 2h-2c-1.43089156-.0014409-2.82751535.4377973-4 1.258v5.742c0-3.8659932 3.13400675-7 7-7h2c1.1032019-.0032948 1.9967052-.8967981 2-2v-40c-.0032948-1.10320187-.8967981-1.9967052-2-2z" fill="#fdd834"/><path id="Shape" d="m41.01 24.77-.01.02c-.4590745.454032-1.0581876.7394918-1.7.81l-3.42.39c-.509748.0504155-1.0152503-.13034-1.3774551-.4925449-.3622049-.3622048-.5429604-.8677071-.4925449-1.3774551l.38-3.4c.0703704-.6567831.3673986-1.2685198.84-1.73z" fill="#ffe0b2"/><path id="Rectangle-path" d="m35.572 11.638h17.416v8.174h-17.416z" fill="#02a9f4" transform="matrix(.707 -.707 .707 .707 1.842 35.899)"/><path id="Rectangle-path" d="m49.84 4.037h4.091v8.171h-4.091z" fill="#9e9e9e" transform="matrix(.706 -.708 .708 .706 9.507 39.141)"/><path id="Shape" d="m58.39 7.39-2.17 2.17-5.78-5.77v-.01l2.17-2.17c.3823631-.3886856.9047679-.60758632 1.45-.60758632s1.0676369.21890072 1.45.60758632l2.88 2.88c.3886856.38236308.6075863.90476792.6075863 1.45s-.2189007 1.06763692-.6075863 1.45z" fill="#e91e63"/><path id="Shape" d="m60 5.958c.0036868-.81486493-.320675-1.59693723-.9-2.17l-2.888-2.888c-.5703849-.57660196-1.3479462-.90073592-2.159-.9h-.01c-.806113.00052244-1.5782383.32479345-2.143.9l-13.1 13.1h-25.8v-11c0-1.65685425-1.3431458-3-3-3h-2c-4.41622192.00495988-7.99504012 3.58377808-8 8v44.251c.2502796 4.3825057 3.90059043 7.7945996 8.29 7.749h48.71c1.6568542 0 3-1.3431458 3-3v-40c0-1.6568542-1.3431458-3-3-3h-3.8l5.9-5.9c.5741089-.56509529.8982024-1.33643777.9-2.142zm-24.22 19.042c-.2116938.0287873-.4243668-.0455739-.572-.2-.1488357-.1478862-.2224172-.3553859-.2-.564l.379-3.4c.0158895-.0711097.0359237-.1412294.06-.21l3.939 3.939c-.065.014-.124.046-.192.054zm5.239-1.633-4.376-4.377 10.9-10.9 4.374 4.373zm7.934-16.692 1.483-1.482 4.372 4.373-1.482 1.483zm-46.953 1.325c.00330738-3.31233757 2.68766243-5.99669262 6-6h2c.5522847 0 1 .44771525 1 1v40c0 .5522847-.4477153 1-1 1h-2c-2.29731993-.0006869-4.48360775.988244-6 2.714zm55 8c.5522847 0 1 .4477153 1 1v40c0 .5522847-.4477153 1-1 1h-48.71c-3.30122214.0554805-6.06680341-2.4858645-6.29-5.78v-.22c.00330738-3.3123376 2.68766243-5.9966926 6-6h2c1.6568542 0 3-1.3431458 3-3v-27h23.8l-2.271 2.271c-.6339761.624706-1.0327845 1.4491691-1.129 2.334l-.379 3.407c-.0311789.3322513.0003687.6674029.093.988h-17.114c-.5522847 0-1 .4477153-1 1s.4477153 1 1 1h3v27c0 .5522847.4477153 1 1 1s1-.4477153 1-1v-14h11v8h-7c-.5522847 0-1 .4477153-1 1s.4477153 1 1 1h20c1.1045695 0 2-.8954305 2-2v-15c0-.5522847-.4477153-1-1-1s-1 .4477153-1 1v5h-24v-11h14.7c.1 0 .165 0 .3-.016l3.417-.389c.8672754-.0984732 1.6767921-.4838735 2.3-1.095l9.488-9.5zm-12 24v8h-11v-8zm12.69-33.318-1.468 1.469-4.372-4.372 1.469-1.469c.1921864-.19725282.4556035-.30896185.731-.31.2803578.00069962.548723.11380926.745.314l2.892 2.886c.2011186.19803036.3139494.46875224.313.751-.0008125.27544273-.1125571.53894362-.31.731z" fill="#000"/></g></g></svg>