<?xml version="1.0" encoding="iso-8859-1"?>
<!-- Generator: Adobe Illustrator 19.0.0, SVG Export Plug-In . SVG Version: 6.00 Build 0)  -->
<svg version="1.1" id="Capa_1" xmlns="http://www.w3.org/2000/svg" xmlns:xlink="http://www.w3.org/1999/xlink" x="0px" y="0px"
	 viewBox="0 0 384 384" style="enable-background:new 0 0 384 384;" xml:space="preserve">
<path style="fill:#4DD0E1;" d="M192,192c36.32,0,70.08,11.04,98.16,29.84L192,320l-98.16-98.16C121.92,203.04,155.68,192,192,192z"
	/>
<circle style="fill:#FF7043;" cx="192" cy="104" r="88"/>
<g>
	<path style="fill:#012E52;" d="M299.056,208.544c-0.016-0.008-0.024-0.016-0.04-0.024c-0.056-0.04-0.12-0.072-0.176-0.104
		c-13.784-9.208-28.584-16.408-43.992-21.744C279.8,167.656,296,137.72,296,104C296,46.656,249.344,0,192,0S88,46.656,88,104
		c0,33.72,16.208,63.656,41.16,82.672c-15.408,5.336-30.208,12.536-43.992,21.744c-0.056,0.04-0.12,0.072-0.176,0.112
		c-0.024,0.016-0.048,0.032-0.072,0.048C31.744,244.344,0,303.944,0,368c0,8.832,7.168,16,16,16s16-7.168,16-16
		c0-49.016,22.352-94.856,60.272-125.104l88.416,88.416c3,3,7.072,4.688,11.312,4.688c4.24,0,8.312-1.688,11.312-4.688
		l88.416-88.416C329.656,273.168,352,318.992,352,368c0,8.832,7.168,16,16,16s16-7.168,16-16
		C384,303.944,352.256,244.344,299.056,208.544z M120,104c0-39.696,32.296-72,72-72s72,32.304,72,72s-32.296,72-72,72
		S120,143.696,120,104z M192,297.368l-72.136-72.136C142.184,213.976,166.752,208,192,208c25.256,0,49.832,5.976,72.136,17.24
		L192,297.368z"/>
	<path style="fill:#012E52;" d="M96,328c-8.832,0-16,7.168-16,16v24c0,8.832,7.168,16,16,16s16-7.168,16-16v-24
		C112,335.168,104.832,328,96,328z"/>
	<path style="fill:#012E52;" d="M296,328c-8.832,0-16,7.168-16,16v24c0,8.832,7.168,16,16,16s16-7.168,16-16v-24
		C312,335.168,304.832,328,296,328z"/>
</g>
<g>
</g>
<g>
</g>
<g>
</g>
<g>
</g>
<g>
</g>
<g>
</g>
<g>
</g>
<g>
</g>
<g>
</g>
<g>
</g>
<g>
</g>
<g>
</g>
<g>
</g>
<g>
</g>
<g>
</g>
</svg>
