<?xml version="1.0"?>
<svg xmlns="http://www.w3.org/2000/svg" xmlns:xlink="http://www.w3.org/1999/xlink" xmlns:svgjs="http://svgjs.com/svgjs" version="1.1" width="512" height="512" x="0" y="0" viewBox="0 0 512 512" style="enable-background:new 0 0 512 512" xml:space="preserve"><g><path xmlns="http://www.w3.org/2000/svg" d="m339.089844 512h-184.75c-8.257813 0-14.960938-6.699219-15-14.988281l-.246094-52.046875-32.300781 4.175781c-11.070313 1.8125-22.269531-1.355469-30.773438-8.722656-8.449219-7.320313-13.203125-17.890625-13.09375-29.074219l-3.171875-74.710938h-31.300781c-10.269531 0-19.46875-5.332031-24.601563-14.261718-5.136718-8.929688-5.136718-19.589844 0-28.519532.167969-.285156.34375-.570312.523438-.84375l42.039062-63.042968c2.785157-4.175782 7.460938-6.683594 12.464844-6.683594h343.035156c4.105469 0 8.03125 1.6875 10.859376 4.671875 2.832031 2.980469 4.320312 7 4.125 11.113281-3.5 72.949219-19.277344 97.519532-62.808594 143.363282v114.511718c0 8.316406-6.714844 15.058594-15 15.058594zm0 0" fill="#ffdad6" data-original="#ffdad6" style=""/><path xmlns="http://www.w3.org/2000/svg" d="m167 442.917969c-6.792969 0-12.945312-4.664063-14.582031-11.589844-1.910157-8.089844 3.070312-16.207031 11.132812-18.128906l39.925781-9.511719c10-2.378906 18.414063-9.011719 23.089844-18.191406 9.160156-17.984375 20.820313-41.570313 20.9375-41.808594 3.683594-7.449219 12.683594-10.492188 20.105469-6.792969 7.417969 3.699219 10.449219 12.734375 6.765625 20.183594-.117188.238281-11.855469 23.984375-21.097656 42.128906-8.683594 17.054688-24.3125 29.367188-42.878906 33.789063 0 0-42.25 9.921875-43.398438 9.921875zm0 0" fill="#ff9c97" data-original="#ff9c97" style=""/><path xmlns="http://www.w3.org/2000/svg" d="m412.773438 227.953125c-2.828126-2.984375-6.753907-4.671875-10.855469-4.671875h-167.257813v288.71875h104.429688c8.285156 0 15-6.742188 15-15.058594v-114.511718c43.53125-45.84375 59.308594-70.414063 62.808594-143.363282.199218-4.113281-1.292969-8.132812-4.125-11.113281zm0 0" fill="#ffb5ac" data-original="#ffb5ac" style=""/><path xmlns="http://www.w3.org/2000/svg" d="m167 442.917969c-6.792969 0-12.945312-4.664063-14.582031-11.589844-1.910157-8.089844 3.070312-16.207031 11.132812-18.128906l39.925781-9.511719c10-2.378906 18.414063-9.011719 23.089844-18.191406 9.160156-17.984375 20.820313-41.570313 20.9375-41.808594 3.683594-7.449219 12.683594-10.492188 20.105469-6.792969 7.417969 3.699219 10.449219 12.734375 6.765625 20.183594-.117188.238281-11.855469 23.984375-21.097656 42.128906-8.683594 17.054688-24.3125 29.367188-42.878906 33.789063 0 0-42.25 9.921875-43.398438 9.921875zm0 0" fill="#ffb5ac" data-original="#ffb5ac" style=""/><path xmlns="http://www.w3.org/2000/svg" d="m267.605469 336.894531c-7.421875-3.699219-16.421875-.65625-20.101563 6.796875-.085937.167969-6.082031 12.296875-12.84375 25.777344v52.027344c7.703125-5.859375 14.105469-13.425782 18.617188-22.289063 9.242187-18.144531 20.980468-41.890625 21.097656-42.128906 3.683594-7.449219.652344-16.484375-6.769531-20.183594zm0 0" fill="#ff9c97" data-original="#ff9c97" style=""/><path xmlns="http://www.w3.org/2000/svg" d="m234.769531 292.679688c-2.023437 0-4.046875-.554688-5.832031-1.664063-3.285156-2.035156-80.691406-50.496094-105.0625-107.644531-5-11.726563-7.503906-23.210938-7.4375-34.132813.117188-19.996093 6.828125-38.851562 18.898438-53.089843 12.546874-14.796876 29.390624-22.949219 47.421874-22.949219 20.660157 0 39.679688 11.019531 52.011719 28.925781 12.332031-17.90625 31.351563-28.925781 52.011719-28.925781 16.210938 0 31.824219 6.75 43.957031 19.003906 14.339844 14.484375 22.492188 35.320313 22.363281 57.167969-.0625 10.894531-2.65625 22.347656-7.710937 34.050781-24.667969 57.09375-101.5 105.542969-104.757813 107.578125-1.796874 1.117188-3.828124 1.679688-5.863281 1.679688zm0 0" fill="#ff6568" data-original="#ff6568" style=""/><path xmlns="http://www.w3.org/2000/svg" d="m330.738281 92.203125c-12.132812-12.253906-27.746093-19.003906-43.957031-19.003906-20.660156 0-39.679688 11.019531-52.011719 28.925781-.035156-.050781-.074219-.101562-.109375-.152344v190.699219c.035156 0 .074219.007813.109375.007813 2.035157 0 4.066407-.558594 5.863281-1.679688 3.257813-2.035156 80.09375-50.484375 104.757813-107.578125 5.054687-11.703125 7.648437-23.15625 7.714844-34.050781.125-21.847656-8.027344-42.683594-22.367188-57.167969zm0 0" fill="#ff282f" data-original="#ff282f" style=""/><path xmlns="http://www.w3.org/2000/svg" d="m107.265625 85.433594c-3.835937 0-7.675781-1.46875-10.601563-4.410156l-9.558593-9.589844c-5.859375-5.878906-5.863281-15.414063-.007813-21.300782 5.855469-5.882812 15.355469-5.882812 21.214844-.003906l9.554688 9.589844c5.859374 5.878906 5.863281 15.414062.007812 21.300781-2.929688 2.941407-6.769531 4.414063-10.609375 4.414063zm0 0" fill="#006da6" data-original="#006da6" style=""/><path xmlns="http://www.w3.org/2000/svg" d="m363.707031 85.433594c-3.839843 0-7.679687-1.472656-10.609375-4.414063-5.855468-5.882812-5.855468-15.421875.007813-21.300781l9.558593-9.589844c5.859376-5.882812 15.355469-5.878906 21.210938.003906 5.855469 5.882813 5.855469 15.421876-.003906 21.300782l-9.558594 9.589844c-2.929688 2.941406-6.769531 4.410156-10.605469 4.410156zm0 0" fill="#003554" data-original="#003554" style=""/><path xmlns="http://www.w3.org/2000/svg" d="m62.488281 182.476562h-11.421875c-8.28125 0-15-6.742187-15-15.058593 0-8.316407 6.71875-15.058594 15-15.058594h11.421875c8.28125 0 15 6.742187 15 15.058594 0 8.316406-6.71875 15.058593-15 15.058593zm0 0" fill="#006da6" data-original="#006da6" style=""/><path xmlns="http://www.w3.org/2000/svg" d="m418.472656 182.476562h-11.636718c-8.285157 0-15-6.742187-15-15.058593 0-8.316407 6.714843-15.058594 15-15.058594h11.636718c8.28125 0 15 6.742187 15 15.058594 0 8.316406-6.71875 15.058593-15 15.058593zm0 0" fill="#003554" data-original="#003554" style=""/><path xmlns="http://www.w3.org/2000/svg" d="m234.660156 40.910156c-8.285156 0-15-6.742187-15-15.058594v-10.792968c0-8.316406 6.714844-15.058594 15-15.058594s15 6.742188 15 15.058594v10.792968c0 8.316407-6.714844 15.058594-15 15.058594zm0 0" fill="#006da6" data-original="#006da6" style=""/><path xmlns="http://www.w3.org/2000/svg" d="m234.660156 0v40.910156c8.285156 0 15-6.742187 15-15.058594v-10.792968c0-8.316406-6.714844-15.058594-15-15.058594zm0 0" fill="#003554" data-original="#003554" style=""/></g></svg>
