<?xml version="1.0"?>
<svg xmlns="http://www.w3.org/2000/svg" xmlns:xlink="http://www.w3.org/1999/xlink" xmlns:svgjs="http://svgjs.com/svgjs" version="1.1" width="512" height="512" x="0" y="0" viewBox="0 0 512 512" style="enable-background:new 0 0 512 512" xml:space="preserve" class=""><g><g xmlns="http://www.w3.org/2000/svg"><g clip-rule="evenodd" fill-rule="evenodd"><path d="m29.821 56.992h452.359c4.28 0 7.767 3.514 7.767 7.766v292.597c0 4.252-3.486 7.738-7.767 7.738h-452.359c-4.252 0-7.767-3.486-7.767-7.738v-292.597c0-4.252 3.515-7.766 7.767-7.766z" fill="#faf7f8" data-original="#faf7f8" style="" class=""/><path d="m22.054 42.448h467.892c8.022 0 14.57 6.55 14.57 14.544 0 8.022-6.549 14.57-14.57 14.57h-467.892c-7.994 0-14.542-6.549-14.542-14.57 0-7.994 6.548-14.544 14.542-14.544z" fill="#db805b" data-original="#db805b" style=""/><path d="m158.941 319.767c55.871 0 101.424-45.554 101.424-101.425 0-55.872-45.553-101.453-101.424-101.453-55.872 0-101.454 45.581-101.454 101.453 0 55.871 45.582 101.425 101.454 101.425z" fill="#99e6fc" data-original="#99e6fc" style=""/><path d="m219.348 136.845c24.889 18.482 41.018 48.104 41.018 81.497 0 56.012-45.412 101.425-101.424 101.425-25.257 0-48.359-9.213-66.105-24.493 10.687 3.6 22.139 5.558 34.016 5.558 59.415 0 107.576-48.616 107.576-108.541-.001-20.268-5.5-39.204-15.081-55.446z" fill="#62dbfb" data-original="#62dbfb" style=""/><path d="m168.777 156.686c19.446 0 36.766-8.447 48.048-21.656-16.413-11.425-36.369-18.142-57.884-18.142-15.761 0-30.7 3.6-43.994 10.006 10.488 17.775 30.671 29.792 53.83 29.792zm-49.635 31.551h-57.119c-2.948 9.496-4.536 19.615-4.536 30.104 0 26.051 9.837 49.805 25.994 67.775h61.597c8.958 0 16.3-7.34 16.3-16.299 0-8.984-7.341-16.326-16.3-16.326h-31.067c-8.986 0-16.328-7.342-16.328-16.328 0-8.957 7.342-16.299 16.328-16.299h5.131c8.957 0 16.299-7.342 16.299-16.329 0-8.956-7.342-16.298-16.299-16.298zm98.873 10.715c-12.217 0-22.224 10.006-22.224 22.224 0 12.219 10.006 22.225 22.224 22.225h39.232c2.041-8.021 3.118-16.412 3.118-25.059 0-6.634-.623-13.097-1.843-19.39z" fill="#3ec3a4" data-original="#3ec3a4" style=""/><path d="m258.522 198.952h-24.292c-.964 16.017-5.357 31.067-12.444 44.448h35.462c2.041-8.021 3.118-16.412 3.118-25.059-.001-6.633-.624-13.096-1.844-19.389z" fill="#0bb494" data-original="#0bb494" style=""/><path d="m465.681 71.562v240.153c0 16.016-13.096 29.111-29.112 29.111h-414.515v16.527c0 4.252 3.515 7.738 7.767 7.738h218.922 14.514 218.923c4.28 0 7.767-3.486 7.767-7.738v-285.791z" fill="#eee9fb" data-original="#eee9fb" style="" class=""/></g><path d="m158.941 109.404c30.076 0 57.317 12.19 77.018 31.892 20.58 20.578 31.918 48.16 31.918 77.046 0 28.885-11.338 56.467-31.918 77.018-19.701 19.729-46.942 31.919-77.018 31.919s-57.318-12.189-77.047-31.919c-20.438-20.438-31.89-47.99-31.89-77.018 0-28.915 11.367-56.495 31.89-77.046 19.729-19.702 46.971-31.892 77.047-31.892zm170.109 192.617c4.139 0 7.483 3.375 7.483 7.514 0 4.137-3.345 7.512-7.483 7.512h-39.516c-2.069 0-3.969-.852-5.329-2.24l-20.92-18.058c-3.118-2.721-3.458-7.428-.766-10.545 2.722-3.117 7.427-3.459 10.545-.766l19.219 16.583zm-1.021-183.404c4.139 0 7.483 3.344 7.483 7.512 0 4.14-3.345 7.483-7.483 7.483h-36.738l-19.247 16.611c-3.118 2.693-7.823 2.354-10.545-.766-2.692-3.117-2.352-7.852.766-10.545l20.948-18.085c1.36-1.361 3.231-2.211 5.301-2.211h39.515zm-37.928 107.207c-4.139 0-7.512-3.344-7.512-7.482s3.373-7.513 7.512-7.513h37.929c4.139 0 7.483 3.374 7.483 7.513s-3.345 7.482-7.483 7.482zm66.077 14.571c-4.139 0-7.513-3.344-7.513-7.512 0-4.139 3.374-7.482 7.513-7.482h80.363c4.139 0 7.512 3.344 7.512 7.482 0 4.168-3.373 7.512-7.512 7.512zm0-121.352c-4.139 0-7.513-3.346-7.513-7.484s3.374-7.512 7.513-7.512h101.935c4.139 0 7.483 3.373 7.483 7.512s-3.345 7.484-7.483 7.484zm0 29.14c-4.139 0-7.513-3.373-7.513-7.512s3.374-7.482 7.513-7.482h80.363c4.139 0 7.512 3.344 7.512 7.482s-3.373 7.512-7.512 7.512zm0 184.423c-4.139 0-7.513-3.344-7.513-7.482 0-4.139 3.374-7.512 7.513-7.512h80.363c4.139 0 7.512 3.373 7.512 7.512s-3.373 7.482-7.512 7.482zm0-29.111c-4.139 0-7.513-3.373-7.513-7.513 0-4.139 3.374-7.482 7.513-7.482h101.935c4.139 0 7.483 3.344 7.483 7.482 0 4.14-3.345 7.513-7.483 7.513zm0-92.213c-4.139 0-7.513-3.373-7.513-7.512s3.374-7.482 7.513-7.482h101.935c4.139 0 7.483 3.344 7.483 7.482 0 4.139-3.345 7.512-7.483 7.512zm-92.695 161.322v41.981c5.726 1.418 10.885 4.365 14.91 8.391 5.727 5.754 9.27 13.664 9.27 22.395 0 8.758-3.543 16.668-9.27 22.393-5.726 5.755-13.635 9.3-22.394 9.3-8.73 0-16.668-3.545-22.394-9.3-5.726-5.725-9.27-13.635-9.27-22.393 0-8.73 3.544-16.641 9.27-22.395 4.054-4.025 9.184-6.973 14.939-8.391v-41.981h-226.49c-4.139 0-7.484-3.346-7.484-7.512v-29.111c0-4.139 3.345-7.484 7.484-7.484s7.512 3.346 7.512 7.484v21.627h452.897v-222.947c0-4.139 3.345-7.513 7.483-7.513s7.512 3.374 7.512 7.513v230.432c0 4.166-3.373 7.512-7.512 7.512h-226.463zm4.309 61.003c-3.005-3.033-7.172-4.904-11.792-4.904-4.592 0-8.759 1.871-11.792 4.904-3.005 3.004-4.876 7.172-4.876 11.764 0 4.619 1.871 8.787 4.876 11.791 3.033 3.033 7.2 4.904 11.792 4.904 4.62 0 8.787-1.871 11.792-4.904 3.005-3.004 4.876-7.172 4.876-11.791 0-4.592-1.871-8.76-4.876-11.764zm-238.226-131.586c0 4.139-3.373 7.484-7.512 7.484s-7.484-3.346-7.484-7.484v-224.279c-3.062-1.105-5.839-2.893-8.079-5.16-3.996-3.996-6.491-9.496-6.491-15.59 0-6.066 2.495-11.594 6.492-15.563 3.968-3.996 9.496-6.492 15.562-6.492h216.966c4.139 0 7.512 3.373 7.512 7.512 0 4.14-3.373 7.485-7.512 7.485h-216.966c-1.928 0-3.685.793-4.961 2.098-1.304 1.275-2.098 3.033-2.098 4.961 0 1.955.793 3.713 2.098 4.988 1.275 1.275 3.033 2.07 4.961 2.07h467.892c1.928 0 3.713-.795 4.989-2.07 1.275-1.275 2.069-3.033 2.069-4.988 0-1.928-.794-3.686-2.069-4.961-1.276-1.305-3.061-2.098-4.989-2.098h-216.967c-4.139 0-7.483-3.346-7.483-7.485s3.345-7.512 7.483-7.512h216.967c6.066 0 11.594 2.496 15.591 6.492 3.997 3.97 6.463 9.497 6.463 15.563 0 6.094-2.466 11.594-6.463 15.59-2.269 2.268-5.018 4.055-8.079 5.16v22.932c0 4.139-3.373 7.512-7.512 7.512s-7.483-3.373-7.483-7.512v-21.6h-452.897zm96.861-171.838c4.11 4.791 9.099 8.873 14.768 12.02 8.023 4.451 17.462 7.002 27.582 7.002 8.475 0 16.441-1.814 23.556-5.018 4.564-2.041 8.788-4.705 12.53-7.824-13.579-7.625-29.254-11.962-45.922-11.962-11.424-.001-22.366 2.04-32.514 5.782zm91.22 14.826c-5.528 5.244-12.019 9.609-19.162 12.84-9.015 4.055-19.106 6.35-29.708 6.35-12.642 0-24.548-3.26-34.781-8.928-8.504-4.707-15.846-11.084-21.515-18.596-7.342 4.166-14.061 9.297-19.985 15.223-8.22 8.248-14.938 18-19.672 28.828h46.319c6.548 0 12.5 2.691 16.809 7.002 4.309 4.309 7.001 10.26 7.001 16.809 0 6.576-2.692 12.53-7.001 16.839s-10.261 6.973-16.809 6.973h-5.131c-2.438 0-4.621 1.021-6.236 2.607-1.588 1.617-2.58 3.799-2.58 6.209 0 2.438.992 4.621 2.58 6.236 1.616 1.588 3.798 2.58 6.236 2.58h31.067c6.549 0 12.501 2.691 16.81 7s7.002 10.262 7.002 16.838c0 6.549-2.693 12.502-7.002 16.811s-10.261 7.002-16.81 7.002h-42.322c15.648 11.708 35.094 18.651 56.184 18.651 25.937 0 49.408-10.516 66.416-27.524 9.497-9.496 16.98-21.006 21.714-33.846h-29.056c-8.164 0-15.619-3.346-20.976-8.73-5.387-5.387-8.731-12.812-8.731-21.006 0-8.164 3.345-15.62 8.731-21.005 5.357-5.357 12.812-8.703 20.976-8.703h30.955c-4.507-15.137-12.727-28.686-23.613-39.57-2.438-2.441-5.017-4.736-7.71-6.89zm-130.764 133.626h58.196c2.41 0 4.621-.992 6.208-2.607 1.616-1.588 2.608-3.799 2.608-6.209 0-2.438-.992-4.619-2.608-6.236-1.588-1.586-3.799-2.578-6.208-2.578h-31.067c-6.576 0-12.53-2.693-16.838-7.002-4.309-4.309-6.973-10.262-6.973-16.838 0-6.549 2.665-12.502 6.973-16.811 4.309-4.309 10.262-7 16.838-7h5.131c2.409 0 4.62-.993 6.208-2.581 1.616-1.615 2.608-3.799 2.608-6.236 0-2.41-.992-4.621-2.608-6.207-1.587-1.617-3.798-2.609-6.208-2.609h-51.422c-1.786 7.258-2.721 14.826-2.721 22.622-.001 22.93 8.22 43.964 21.883 60.292zm165.233-72.171h-34.101c-4.025 0-7.71 1.645-10.375 4.336-2.693 2.667-4.337 6.351-4.337 10.376 0 4.055 1.645 7.738 4.337 10.404 2.665 2.664 6.35 4.336 10.375 4.336h33.223c1.076-5.697 1.644-11.564 1.644-17.574 0-4.026-.255-7.995-.766-11.878z" fill="#000000" data-original="#000000" style="" class=""/></g></g></svg>
