<svg id="Capa_1" enable-background="new 0 0 512 512" height="512" viewBox="0 0 512 512" width="512" xmlns="http://www.w3.org/2000/svg"><g><g><path d="m8.229 252.475v-155.789c0-33.519 27.173-60.692 60.692-60.692h374.158c33.519 0 60.692 27.173 60.692 60.692v251.979z" fill="#e49824"/><path d="m411.025 7.502h-208.256c-25.754 0-46.631 20.878-46.631 46.631v276.392c0 25.754 20.878 46.631 46.631 46.631h208.256c25.754 0 46.632-20.878 46.632-46.631v-276.392c0-25.754-20.878-46.631-46.632-46.631z" fill="#dddaec"/><path d="m336.567 78.678h-208.256c-25.754 0-46.631 20.878-46.631 46.631v276.392c0 25.754 20.878 46.632 46.631 46.632h208.256c25.754 0 46.631-20.878 46.631-46.632v-276.391c.001-25.754-20.877-46.632-46.631-46.632z" fill="#f9f6f9"/><path d="m503.771 288.019v155.789c0 33.519-27.173 60.692-60.692 60.692h-374.158c-33.519 0-60.692-27.173-60.692-60.692v-251.979c0-33.519 27.173-60.692 60.692-60.692h119.057c20.443 0 39.512 10.291 50.732 27.379 18.289 27.159 38.665 71.466 77.938 68.81h126.43c33.52.001 60.693 27.173 60.693 60.693z" fill="#e7a52e"/><path d="m118.331 504.497h-49.407c-33.518 0-60.695-27.177-60.695-60.695v-251.973c0-33.518 27.177-60.695 60.695-60.695h49.407c-33.518 0-60.695 27.177-60.695 60.695v251.973c0 33.517 27.178 60.695 60.695 60.695z" fill="#e49824"/></g><g><path d="m511.271 96.69c0-31.382-21.423-58.555-51.484-66.11-9.006-18.705-27.726-30.58-48.757-30.58h-208.26c-20.109 0-38.309 11.038-47.677 28.495h-86.169c-37.603 0-68.194 30.592-68.194 68.195l0 347.12c0 37.6 30.59 68.19 68.189 68.19h72.22c4.143 0 7.5-3.358 7.5-7.5s-3.357-7.5-7.5-7.5h-72.219c-29.329 0-53.189-23.861-53.189-53.19v-251.98c0-29.329 23.86-53.19 53.189-53.19h119.06c17.975 0 34.596 8.97 44.461 23.997l27.209 41.429c12.646 19.263 33.955 30.764 57 30.764h126.43c29.329 0 53.189 23.861 53.189 53.19v155.79c0 29.329-23.86 53.19-53.189 53.19h-271.94c-4.143 0-7.5 3.358-7.5 7.5s3.357 7.5 7.5 7.5h271.94c37.6 0 68.189-30.59 68.189-68.19zm-495.542 52.542v-52.542c0-29.332 23.863-53.195 53.194-53.195h80.761c-.693 3.475-1.045 7.027-1.045 10.635v17.043h-20.327c-29.286 0-53.198 23.387-54.088 52.467h-5.304c-21.493 0-40.683 10.006-53.191 25.592zm256.459 46.601-27.209-41.429c-12.646-19.263-33.955-30.764-56.999-30.764h-98.756c.881-20.809 18.073-37.467 39.088-37.467h208.258c21.577 0 39.131 17.559 39.131 39.142v94.515h-59.051c-17.975 0-34.596-8.97-44.462-23.997zm192.972 27.687v-119.4c0-4.142-3.357-7.5-7.5-7.5s-7.5 3.358-7.5 7.5v116.078c-2.328-.241-4.689-.368-7.08-.368h-52.379v-94.515c0-29.854-24.283-54.142-54.131-54.142h-172.93v-17.043c0-5.286 1.031-10.401 3.069-15.213 6.133-14.529 20.288-23.917 36.061-23.917h208.26c16.193 0 30.494 9.738 36.426 24.792 1.794 4.587 2.704 9.411 2.704 14.337v20.69c0 4.142 3.357 7.5 7.5 7.5s7.5-3.358 7.5-7.5v-20.689c0-2.015-.124-4.015-.344-6 18.77 8.393 31.454 27.229 31.454 48.561v148.732c-8.01-9.984-18.764-17.665-31.11-21.903z"/><path d="m351.772 124.512c-3.658-1.945-8.197-.554-10.143 3.103l-27.468 51.681-18.992-23.637c-2.593-3.228-7.314-3.744-10.544-1.149s-3.744 7.315-1.149 10.544l26.12 32.508c3.164 4.17 10.151 3.499 12.47-1.178l32.81-61.729c1.943-3.658.555-8.199-3.104-10.143z"/><path d="m66.062 281.15h127.927c4.143 0 7.5-3.358 7.5-7.5s-3.357-7.5-7.5-7.5h-127.927c-4.143 0-7.5 3.358-7.5 7.5s3.358 7.5 7.5 7.5z"/><path d="m66.062 308.901h127.927c4.143 0 7.5-3.358 7.5-7.5s-3.357-7.5-7.5-7.5h-127.927c-4.143 0-7.5 3.358-7.5 7.5s3.358 7.5 7.5 7.5z"/></g></g></svg>