<svg id="Layer_1" enable-background="new 0 0 496.231 496.231" height="512" viewBox="0 0 496.231 496.231" width="512" xmlns="http://www.w3.org/2000/svg"><path d="m389.145 16h-282c-17.67 0-32 14.33-32 32v334l98 98h216c17.67 0 32-14.33 32-32v-400c0-17.67-14.33-32-32-32z" fill="#e8f8fc"/><path d="m393.197 66h-236.052c-17.673 0-32 14.327-32 32v334l-50-50v-334c0-17.673 14.327-32 32-32h282c40.3 0 35.692 50 4.052 50z" fill="#f1fafc"/><path d="m173.145 398v82l-98-98h82c8.837 0 16 7.163 16 16z" fill="#d6f4fc"/><path d="m312.145 224.51v7.465c0 7.994-6.481 14.475-14.475 14.475h-100.72c-7.994 0-14.475-6.481-14.475-14.475v-7.465c0-7.54 4.43-14.37 11.32-17.45 24.663-11.014 24.425-11.33 28.455-11.33h50.11c4.048 0 3.908.368 28.464 11.33 6.891 3.08 11.321 9.91 11.321 17.45z" fill="#fe4f60"/><path d="m247.485 76.37c20.91 0 37.86 16.95 37.86 37.86 0 20.9-16.95 37.85-37.86 37.85-20.9 0-37.85-16.95-37.85-37.85 0-20.91 16.95-37.86 37.85-37.86z" fill="#ffebd2"/><path d="m259.105 78.186c4.599 1.481 3.449 8.214-1.383 8.185-22.569-.138-38.314 18.517-38.118 38.408.047 4.782-6.691 5.95-8.161 1.399-9.135-28.262 16.842-57.918 47.662-47.992z" fill="#fff3e4"/><path d="m271.789 195.789c2.534.145 2.416 3.927-.122 3.927-43.017.004-41.589-.392-45.322 1.274l-22.55 10.07c-6.89 3.08-11.32 9.91-11.32 17.45 0 1.392-.031 2.716-.045 3.984-.071 6.286-9.499 6.743-9.921.471-.052-.772-.033-.86-.033-8.454 0-7.54 4.43-14.37 11.32-17.45 24.731-11.044 24.454-11.33 28.46-11.33 30.408-.001 43.003-.315 49.533.058z" fill="#ff6d7a"/><path d="m389.145 0h-282c-26.468 0-48 21.533-48 48 0 356.953-.389 335.402.829 339.058.817 2.446 2.185 4.573 3.831 6.227.998 1.002 98.184 98.301 99.598 99.387 6.322 4.869-3.396 3.328 225.742 3.328 26.468 0 48-21.533 48-48v-400c0-26.467-21.532-48-48-48zm-232 441.373-43.373-43.373h43.373zm248 6.627c0 8.822-7.178 16-16 16h-200v-82c0-8.836-7.163-16-16-16h-82v-318c0-8.822 7.178-16 16-16h282c8.822 0 16 7.178 16 16zm-51-125c0 8.836-7.163 16-16 16h-181c-8.837 0-16-7.164-16-16s7.163-16 16-16h181c8.837 0 16 7.164 16 16zm0 82c0 8.836-7.163 16-16 16h-103c-8.837 0-16-7.164-16-16s7.163-16 16-16h103c8.837 0 16 7.164 16 16zm-106.656-236.923c29.694 0 53.852-24.158 53.852-53.852s-24.157-53.852-53.852-53.852-53.852 24.158-53.852 53.852 24.158 53.852 53.852 53.852zm0-75.704c12.049 0 21.852 9.803 21.852 21.852s-9.803 21.852-21.852 21.852-21.852-9.803-21.852-21.852 9.803-21.852 21.852-21.852zm-81.019 154.078v-21.938c0-13.835 8.163-26.42 20.797-32.062l25.376-11.331c4.255-1.9 1.275-1.39 62.806-1.39 4.498 0 4.344.417 31.899 12.72 12.634 5.642 20.797 18.227 20.797 32.062v21.938c0 8.836-7.163 16-16 16s-16-7.164-16-16v-21.938c0-1.227-.724-2.342-1.844-2.842l-22.263-9.94h-49.462l-22.263 9.94c-1.12.5-1.844 1.616-1.844 2.842v21.938c0 8.836-7.163 16-16 16s-15.999-7.163-15.999-15.999z" fill="#4c3546"/></svg>