<svg id="Capa_1" enable-background="new 0 0 512 512" height="512" viewBox="0 0 512 512" width="512" xmlns="http://www.w3.org/2000/svg"><g><path d="m5 0v286l97 30 30 96h76l30-216-30-196z" fill="#e6f8fc"/><path d="m208 0v412h160l43-210.566v-201.434z" fill="#d0e8ff"/><path d="m5 286 127 126v-126z" fill="#d0e8ff"/><path d="m65 125h143v30h-143z" fill="#6354b1"/><path d="m65 185h143v30h-143z" fill="#6354b1"/><path d="m315 239v56l45.283 53.5-45.283 53.5v56l95.501 20 .499-.104 14.142-128.896-14.142-125.623z" fill="#ffd92e"/><path d="m507 239-96-15.623v254.519l96-19.896v-56l-45.283-53.5 45.283-53.5z" fill="#ffb54c"/><path d="m315 185v54h96l11.414-27-11.414-27z" fill="#6354b1"/><path d="m411 185h96v54h-96z" fill="#54469c"/><path d="m315 512h96l9.594-25-9.594-29h-96z" fill="#6354b1"/><path d="m411 458h96v54h-96z" fill="#54469c"/><path d="m65 65v30h143l7-16-7-14z" fill="#6354b1"/><path d="m208 65h143v30h-143z" fill="#54469c"/></g></svg>