<?xml version="1.0"?>
<svg xmlns="http://www.w3.org/2000/svg" xmlns:xlink="http://www.w3.org/1999/xlink" xmlns:svgjs="http://svgjs.com/svgjs" version="1.1" width="512" height="512" x="0" y="0" viewBox="0 0 480 480" style="enable-background:new 0 0 512 512" xml:space="preserve" class=""><g><g xmlns="http://www.w3.org/2000/svg"><path d="m458.383 232.688-16.858 13.728c-2.613 2.128-6.526.269-6.526-3.102v-38.085c0-3.372 3.917-5.231 6.53-3.099l6.7 5.47c6.644 5.42 10.773 13.152 11.615 21.574.136 1.341-.415 2.663-1.461 3.514z" fill="#525252" data-original="#000000" style="" class=""/><path d="m460 260.416v187.584c0 17.673-14.327 32-32 32h-376c-17.673 0-32-14.327-32-32v-187.642c0-3.371 3.913-5.23 6.526-3.101l103.21 84.081c2.009 1.636 1.955 4.721-.108 6.288l-51.648 39.194c-3.497 2.653-4.235 7.657-1.54 11.21 2.67 3.52 7.69 4.21 11.21 1.54l133.01-100.93c11.384-8.645 27.296-8.645 38.68 0l133.01 100.93c3.52 2.67 8.54 1.98 11.21-1.54s1.98-8.54-1.54-11.21l-51.637-39.185c-2.064-1.566-2.11-4.657-.101-6.294 104.007-84.699 90.801-73.938 103.19-84.026 2.613-2.127 6.528-.269 6.528 3.101z" fill="#525252" data-original="#000000" style="" class=""/><path d="m45 205.229v38.031c0 3.371-3.914 5.23-6.527 3.101l-16.845-13.73c-1.045-.852-1.596-2.175-1.46-3.517.851-8.403 4.978-16.114 11.602-21.514l6.7-5.47c2.613-2.132 6.53-.273 6.53 3.099z" fill="#525252" data-original="#000000" style="" class=""/><path d="m298.018 176.444c-3.175-1.816-7.196-1.353-9.969 1.091-9.276 13.045-22.962 18.474-38.626 15.298-37.128-7.527-69.879-60.636-32.966-86.887 2.445-2.771 2.909-6.793 1.093-9.969-6.629-11.597-16.276-21.24-27.899-27.888-3.213-1.837-7.514-1.237-10.451 1.617-72.746 70.717 74.154 218.057 145.088 145.088 2.815-2.896 3.479-7.194 1.617-10.451-6.649-11.623-16.292-21.27-27.887-27.899z" fill="#525252" data-original="#000000" style="" class=""/><path d="m387 0h-294c-17.673 0-32 14.327-32 32v230.809c0 1.203.541 2.342 1.474 3.101l81.878 66.703c1.431 1.166 3.474 1.201 4.945.085l61.684-46.809c17.09-12.96 40.95-12.96 58.04 0l61.685 46.809c1.47 1.115 3.512 1.081 4.943-.084l81.877-66.664c.933-.76 1.475-1.899 1.475-3.102v-230.848c-.001-17.673-14.328-32-32.001-32zm-48.657 136.84c.649 4.371-2.367 8.439-6.738 9.088l-17.467 2.594c-4.395.652-8.442-2.392-9.088-6.738-.649-4.371 2.367-8.439 6.738-9.088l17.467-2.594c4.375-.645 8.439 2.369 9.088 6.738zm-63.549-28.948 25.049-25.048c3.127-3.125 8.191-3.124 11.314 0 3.124 3.124 3.124 8.189 0 11.313l-25.049 25.048c-3.125 3.124-8.189 3.125-11.314 0-3.124-3.124-3.124-8.189 0-11.313zm-29.316-28.03 2.594-17.467c.648-4.37 4.721-7.385 9.088-6.738 4.371.649 7.388 4.718 6.738 9.088l-2.594 17.467c-.646 4.347-4.694 7.389-9.088 6.738-4.371-.649-7.388-4.718-6.738-9.088zm90.282 146.085c-21.533 22.151-51.04 29.704-83.072 21.281-79.114-20.8-147.484-127.904-84.641-188.994 7.98-7.76 20.132-9.419 29.547-4.033 14.099 8.063 25.803 19.764 33.847 33.836 5.479 9.583 3.813 21.766-4.051 29.628-2.197 2.197-13.749 7.974-10.556 23.727 3.211 15.838 19.925 32.549 35.768 35.76 9.521 1.93 17.17-1.224 22.745-9.373.27-.393.573-.762.908-1.101 7.273-7.553 19.686-9.85 29.703-4.125 14.071 8.043 25.771 19.748 33.835 33.847 5.385 9.415 3.726 21.566-4.033 29.547z" fill="#525252" data-original="#000000" style="" class=""/></g></g></svg>
