<?xml version="1.0"?>
<svg xmlns="http://www.w3.org/2000/svg" xmlns:xlink="http://www.w3.org/1999/xlink" xmlns:svgjs="http://svgjs.com/svgjs" version="1.1" width="512" height="512" x="0" y="0" viewBox="0 0 446 446" style="enable-background:new 0 0 512 512" xml:space="preserve" class=""><g><path xmlns="http://www.w3.org/2000/svg" d="m413 0h-380c-18.21875.0195312-32.9804688 14.78125-33 33v254c.0195312 18.21875 14.78125 32.980469 33 33h380c18.21875-.019531 32.980469-14.78125 33-33v-254c-.019531-18.21875-14.78125-32.9804688-33-33zm-286.601562 55.699219c26.871093.027343 48.628906 21.832031 48.601562 48.699219-.027344 26.871093-21.832031 48.628906-48.699219 48.601562-26.871093-.027344-48.628906-21.832031-48.601562-48.699219.089843-26.84375 21.855469-48.570312 48.699219-48.601562zm69.402343 208.601562h-138.800781c-1.859375.011719-3.648438-.722656-4.960938-2.039062-1.316406-1.316407-2.050781-3.101563-2.039062-4.960938 0-21.800781 7.898438-41.902343 22.300781-56.601562 14.289063-14.460938 33.769531-22.597657 54.097657-22.597657 20.332031 0 39.8125 8.136719 54.101562 22.597657 14.398438 14.699219 22.300781 34.800781 22.300781 56.601562.011719 1.859375-.722656 3.644531-2.039062 4.960938-1.316407 1.316406-3.101563 2.050781-4.960938 2.039062zm192.597657-33.300781h-116.5c-3.863282 0-7-3.132812-7-7s3.136718-7 7-7h116.5c3.867187 0 7 3.132812 7 7s-3.132813 7-7 7zm0-64h-116.5c-3.863282 0-7-3.132812-7-7s3.136718-7 7-7h116.5c3.867187 0 7 3.132812 7 7s-3.132813 7-7 7zm0-64h-116.5c-3.863282 0-7-3.132812-7-7s3.136718-7 7-7h116.5c3.867187 0 7 3.132812 7 7s-3.132813 7-7 7zm0 0" fill="#525252" data-original="#000000" style="" class=""/><path xmlns="http://www.w3.org/2000/svg" d="m161.101562 104.398438c0 19.164062-15.539062 34.703124-34.703124 34.703124-19.164063 0-34.699219-15.539062-34.699219-34.703124 0-19.164063 15.535156-34.699219 34.699219-34.699219 19.164062 0 34.703124 15.535156 34.703124 34.699219zm0 0" fill="#525252" data-original="#000000" style="" class=""/><path xmlns="http://www.w3.org/2000/svg" d="m126.398438 192.101562c-16.585938-.113281-32.507813 6.527344-44.097657 18.398438-10.300781 10.5-16.5 24.5-18 39.800781h124.199219c-1.5-15.402343-7.699219-29.300781-18-39.800781-11.578125-11.886719-27.507812-18.53125-44.101562-18.398438zm0 0" fill="#525252" data-original="#000000" style="" class=""/></g></svg>
