<?xml version="1.0"?>
<svg xmlns="http://www.w3.org/2000/svg" xmlns:xlink="http://www.w3.org/1999/xlink" xmlns:svgjs="http://svgjs.com/svgjs" version="1.1" width="512" height="512" x="0" y="0" viewBox="0 0 24 24" style="enable-background:new 0 0 512 512" xml:space="preserve" class=""><g><g xmlns="http://www.w3.org/2000/svg"><path d="m12.67 8.53c-.22-.02-.45-.03-.67-.03-.14 0-.27 0-.41.01-1.69.08-3.26.66-4.55 1.59l-4.95-8.99c-.12-.23-.12-.51.01-.74.14-.23.38-.37.65-.37h4.5c.27 0 .51.14.65.37l4.21 7.2z" fill="#525252" data-original="#000000" style="" class=""/></g><g xmlns="http://www.w3.org/2000/svg"><path d="m21.91 1.11-4.95 8.99c-.7-.51-1.48-.91-2.32-1.18l-1.68-2.88 3.13-5.65c.14-.24.39-.39.66-.39h4.5c.27 0 .51.14.65.37.13.23.13.51.01.74z" fill="#525252" data-original="#000000" style="" class=""/></g><g xmlns="http://www.w3.org/2000/svg"><path d="m12 10c-3.86 0-7 3.14-7 7s3.14 7 7 7 7-3.14 7-7-3.14-7-7-7zm3.787 6.757-1.361 1.395.323 1.978c.046.283-.073.568-.309.734-.128.09-.28.136-.431.136-.125 0-.25-.031-.363-.094l-1.646-.909-1.646.91c-.251.139-.561.123-.795-.043-.235-.166-.354-.451-.309-.734l.323-1.978-1.361-1.395c-.196-.201-.264-.496-.174-.762.089-.267.319-.46.598-.503l1.851-.283.834-1.777c.246-.527 1.111-.527 1.357 0l.834 1.777 1.851.283c.278.042.509.236.598.503.09.266.022.561-.174.762z" fill="#525252" data-original="#000000" style="" class=""/></g></g></svg>
