<?xml version="1.0"?>
<svg xmlns="http://www.w3.org/2000/svg" xmlns:xlink="http://www.w3.org/1999/xlink" xmlns:svgjs="http://svgjs.com/svgjs" version="1.1" width="512" height="512" x="0" y="0" viewBox="0 0 47.095 47.095" style="enable-background:new 0 0 512 512" xml:space="preserve" class=""><g>
<g xmlns="http://www.w3.org/2000/svg">
	<path d="M45.363,36.234l-13.158-13.16l12.21-12.21c2.31-2.307,2.31-6.049,0-8.358c-2.308-2.308-6.05-2.307-8.356,0l-12.212,12.21   L11.038,1.906c-2.309-2.308-6.051-2.308-8.358,0c-2.307,2.309-2.307,6.049,0,8.358l12.81,12.81L1.732,36.831   c-2.309,2.31-2.309,6.05,0,8.359c2.308,2.307,6.049,2.307,8.356,0l13.759-13.758l13.16,13.16c2.308,2.308,6.049,2.308,8.356,0   C47.673,42.282,47.672,38.54,45.363,36.234z" fill="#6fffe9" data-original="#000000" style="" class=""/>
</g>
<g xmlns="http://www.w3.org/2000/svg">
</g>
<g xmlns="http://www.w3.org/2000/svg">
</g>
<g xmlns="http://www.w3.org/2000/svg">
</g>
<g xmlns="http://www.w3.org/2000/svg">
</g>
<g xmlns="http://www.w3.org/2000/svg">
</g>
<g xmlns="http://www.w3.org/2000/svg">
</g>
<g xmlns="http://www.w3.org/2000/svg">
</g>
<g xmlns="http://www.w3.org/2000/svg">
</g>
<g xmlns="http://www.w3.org/2000/svg">
</g>
<g xmlns="http://www.w3.org/2000/svg">
</g>
<g xmlns="http://www.w3.org/2000/svg">
</g>
<g xmlns="http://www.w3.org/2000/svg">
</g>
<g xmlns="http://www.w3.org/2000/svg">
</g>
<g xmlns="http://www.w3.org/2000/svg">
</g>
<g xmlns="http://www.w3.org/2000/svg">
</g>
</g></svg>
