<?xml version="1.0"?>
<svg xmlns="http://www.w3.org/2000/svg" xmlns:xlink="http://www.w3.org/1999/xlink" xmlns:svgjs="http://svgjs.com/svgjs" version="1.1" width="512" height="512" x="0" y="0" viewBox="0 0 512 512" style="enable-background:new 0 0 512 512" xml:space="preserve" class=""><g><g xmlns="http://www.w3.org/2000/svg"><path d="m497 0h-365.626c-8.284 0-15 6.716-15 15v433.826 22.57c0 15.128-4.837 29.139-13.023 40.604h345.462c34.841 0 63.187-28.34 63.187-63.174v-433.826c0-8.284-6.716-15-15-15zm-318.114 77.386c0-8.284 6.716-15 15-15h89.987c8.284 0 15 6.716 15 15v357.229c0 8.284-6.716 15-15 15h-89.987c-8.284 0-15-6.716-15-15zm250.602 317.519c0 3.222-1.037 6.357-2.958 8.943l-29.492 39.709c-2.83 3.811-7.296 6.057-12.042 6.057s-9.212-2.246-12.042-6.057l-29.491-39.709c-1.921-2.586-2.958-5.722-2.958-8.943v-317.519c0-8.284 6.716-15 15-15h58.983c8.284 0 15 6.716 15 15z" fill="#6fffe9" data-original="#000000" style="" class=""/><path d="m86.374 471.396v-139.631h-71.374c-8.284 0-15 6.716-15 15v102.062c0 31.081 22.574 56.974 52.187 62.196 19.315-2.857 34.187-19.537 34.187-39.627z" fill="#6fffe9" data-original="#000000" style="" class=""/><path d="m370.505 92.386h28.983v32.19h-28.983z" fill="#6fffe9" data-original="#000000" style="" class=""/><path d="m399.488 154.576h-28.983v235.368l14.492 19.512 14.491-19.512z" fill="#6fffe9" data-original="#000000" style="" class=""/><path d="m268.873 377.584h-19.093c-8.284 0-15-6.716-15-15s6.716-15 15-15h19.093v-41.3h-19.093c-8.284 0-15-6.716-15-15s6.716-15 15-15h19.093v-41.299h-19.093c-8.284 0-15-6.716-15-15s6.716-15 15-15h19.093v-41.3h-19.093c-8.284 0-15-6.716-15-15s6.716-15 15-15h19.093v-41.3h-59.987v327.229h59.987z" fill="#6fffe9" data-original="#000000" style="" class=""/></g></g></svg>
