<svg id="Capa_1" enable-background="new 0 0 511.446 511.446" height="512" viewBox="0 0 511.446 511.446" width="512" xmlns="http://www.w3.org/2000/svg"><g><g><path d="m467.113 222.108-192.55-156.19c-10.98-8.91-26.7-8.91-37.68 0l-192.55 156.19c-4.81 3.9-7.6 9.76-7.6 15.95l63.578 151.149 125.065 67.036 187.468-67.036 61.869-150.329v-.82c0-6.19-2.79-12.05-7.6-15.95z" fill="#f9de58"/><g><path d="m422.398 128.073c0-11.852-9.608-21.46-21.46-21.46h-290.43c-11.852 0-21.46 9.608-21.46 21.46v261.135h333.351v-261.135z" fill="#f8f7f8"/><path d="m328.113 317.231c-8.518 5.94-19.916 5.622-28.089-.784l-1.954-1.531c-11.819-9.263-26.598-14.365-41.615-14.365-14.965 0-29.705 5.071-41.505 14.277l-2.034 1.587c-8.176 6.378-19.555 6.68-28.058.745l-23.104-16.128c-6.771-4.727-10.806-12.464-10.806-20.722v-173.652c0-.015.002-.03.002-.045h-40.442c-11.852 0-21.46 9.608-21.46 21.46v261.135h38.416v.299h295.234v-138.232z" fill="#efedee"/><g id="XMLID_255_"><g fill="#fbe88c"><path d="m312.923 351.698-.1.13-73.816 46.261 199.553 98.618 36.153-18.009v-239.82z"/><path d="m199.523 351.698-162.79-113.64v240.64l45.683 10.006 161.641-107.918z"/></g></g><g id="XMLID_257_"><g><path d="m412.843 50.768c0 19.21-12.51 35.48-29.82 41.13l-10.419 12.096c-1.209 1.404-3.362 1.466-4.65.134l-11.831-12.23c-17.94-5.86-30.73-23.12-29.77-43.23 1.05-22.26 19.24-40.27 41.5-41.14 24.68-.95 44.99 18.78 44.99 43.24zm-29.06 0c0-7.84-6.36-14.21-14.21-14.21s-14.21 6.37-14.21 14.21c0 7.85 6.36 14.21 14.21 14.21s14.21-6.36 14.21-14.21z" fill="#e5827f"/></g></g></g><path d="m82.281 448.392v-178.538l-45.548-31.796v240.64l45.683 10.006 22.732-15.177c-12.826-1.196-22.867-11.986-22.867-25.135z" fill="#fbe372"/><path d="m474.713 478.698c0 13.95-11.3 25.25-25.24 25.25h-387.5c-13.94 0-25.24-11.3-25.24-25.25l190.22-148.4c17.2-13.42 41.32-13.39 58.48.06z" fill="#fcf0b6"/><path d="m107.521 473.642c-13.94 0-25.24-11.3-25.24-25.25v-5.228l-45.548 35.534c0 13.95 11.3 25.25 25.24 25.25h387.5c13.94 0 25.24-11.3 25.24-25.25l-6.452-5.056z" fill="#fbe88c"/></g><g><path d="m471.839 216.281-41.94-34.021v-54.187c0-9.823-4.928-18.896-13.181-24.271-3.471-2.26-8.118-1.279-10.378 2.192s-1.278 8.118 2.192 10.378c3.987 2.596 6.367 6.97 6.367 11.7v143.295l-101.851 71.1-22.983-18.013c-19.919-15.611-47.767-15.642-67.72-.075l-23.072 18-56.994-39.786c-3.396-2.369-8.071-1.539-10.443 1.857-2.371 3.396-1.54 8.072 1.857 10.443l53.204 37.141-142.667 111.305v-210.897l62.84 43.868c1.307.913 2.804 1.351 4.287 1.351 2.368 0 4.698-1.119 6.156-3.208 2.371-3.396 1.54-8.072-1.857-10.443l-19.109-13.34v-142.597c0-7.698 6.263-13.96 13.96-13.96h214.226c4.142 0 7.5-3.358 7.5-7.5 0-3.066-1.842-5.698-4.478-6.861.071-.056.14-.117.212-.173l-48.68-39.487c-13.654-11.076-33.475-11.077-47.13 0l-48.106 39.021h-73.544c-15.969 0-28.96 12.992-28.96 28.96v54.187l-41.94 34.021c-6.539 5.304-10.308 13.155-10.371 21.566-.001.048-.004.097-.004.145 0 .023-.002.045-.002.068v240.643c0 18.055 14.689 32.744 32.744 32.744h387.498c18.055 0 32.744-14.689 32.744-32.744v-240.643c0-8.492-3.783-16.43-10.377-21.779zm-230.232-144.541c8.18-6.635 20.052-6.635 28.231 0l33.744 27.372h-95.72zm188.291 129.835 32.491 26.356c2.28 1.849 3.833 4.365 4.482 7.156l-36.973 25.811zm-380.842 26.355 32.491-26.356v58.624l-36.807-25.694c.722-2.556 2.198-4.855 4.316-6.574zm400.416 268.516h-387.498c-8.62 0-15.817-6.182-17.409-14.344l187.006-145.895c14.508-11.319 34.756-11.296 49.24.055l65.192 51.093c3.26 2.556 7.974 1.984 10.53-1.276 2.555-3.26 1.983-7.975-1.277-10.529l-29.864-23.406 141.823-99.004v210.156l-86.618-67.885c-3.26-2.556-7.974-1.984-10.53 1.276-2.555 3.26-1.983 7.975 1.277 10.53l95.538 74.876c-1.587 8.166-8.786 14.353-17.41 14.353z"/><path d="m351.969 98.397 12.998 13.432c1.415 1.462 3.361 2.284 5.389 2.284.073 0 .146-.001.219-.003 2.106-.061 4.09-1.006 5.465-2.603l11.357-13.192c19.795-7.405 32.946-26.244 32.946-47.542 0-13.934-5.531-26.929-15.575-36.592-10.04-9.659-23.25-14.669-37.204-14.142-5.1.197-10.143 1.177-14.989 2.913-3.899 1.396-5.929 5.69-4.532 9.59 1.397 3.899 5.688 5.928 9.59 4.532 3.405-1.22 6.941-1.908 10.511-2.045 9.816-.384 19.151 3.157 26.225 9.962 7.078 6.809 10.975 15.965 10.975 25.783 0 15.518-9.907 29.182-24.652 34.001-1.301.425-2.46 1.198-3.354 2.235l-7.305 8.485-8.522-8.807c-.849-.877-1.899-1.534-3.06-1.913-15.253-4.985-25.373-19.688-24.611-35.753.236-4.979 1.504-9.773 3.769-14.25 1.87-3.696.39-8.208-3.307-10.078-3.695-1.87-8.208-.39-10.078 3.307-3.225 6.373-5.03 13.207-5.367 20.311-1.051 22.14 12.483 42.46 33.112 50.085z"/><path d="m391.281 50.772c0-11.97-9.739-21.709-21.709-21.709s-21.709 9.739-21.709 21.709c0 11.971 9.739 21.709 21.709 21.709s21.709-9.739 21.709-21.709zm-28.419 0c0-3.699 3.01-6.709 6.709-6.709 3.7 0 6.709 3.01 6.709 6.709 0 3.7-3.01 6.709-6.709 6.709s-6.709-3.01-6.709-6.709z"/><path d="m387.309 143.728h-261.308c-4.142 0-7.5 3.358-7.5 7.5s3.358 7.5 7.5 7.5h261.308c4.142 0 7.5-3.358 7.5-7.5s-3.358-7.5-7.5-7.5z"/><path d="m394.809 194.644c0-4.142-3.358-7.5-7.5-7.5h-261.308c-4.142 0-7.5 3.358-7.5 7.5s3.358 7.5 7.5 7.5h261.308c4.142 0 7.5-3.358 7.5-7.5z"/><path d="m376.116 238.059c0-4.142-3.358-7.5-7.5-7.5h-223.922c-4.142 0-7.5 3.358-7.5 7.5s3.358 7.5 7.5 7.5h223.922c4.142 0 7.5-3.358 7.5-7.5z"/><path d="m167.079 273.975c-4.142 0-7.5 3.358-7.5 7.5s3.358 7.5 7.5 7.5h179.151c4.142 0 7.5-3.358 7.5-7.5s-3.358-7.5-7.5-7.5z"/></g></g></svg>