<svg id="Capa_1" enable-background="new 0 0 511.668 511.668" height="512" viewBox="0 0 511.668 511.668" width="512" xmlns="http://www.w3.org/2000/svg"><g><path d="m17.991 496.124-1.246-1.246c-10.251-10.251-10.251-26.872 0-37.123l105.38-105.38 38.369 38.369-105.38 105.38c-10.252 10.251-26.872 10.251-37.123 0z" fill="#0473ce"/><path d="m47.986 496.123c1.12 1.12 2.31 2.12 3.57 2.98-10.24 7.15-24.43 6.15-33.57-2.98l-1.24-1.24c-10.25-10.26-10.25-26.88 0-37.13l105.38-105.38 15 15-90.38 90.38c-10.25 10.25-10.25 26.87 0 37.13z" fill="#c68d7a"/><path d="m160.496 390.743-105.38 105.38c-1.12 1.12-2.31 2.11-3.56 2.98-1.26-.86-2.45-1.86-3.57-2.98l-1.24-1.24c-10.25-10.26-10.25-26.88 0-37.13l90.38-90.38z" fill="#d1a08f"/><path d="m162.542 392.793-42.466-42.466c-6.065-6.065-6.065-15.899 0-21.964l.006-.006c6.065-6.065 15.899-6.065 21.964 0l42.466 42.466c6.065 6.065 6.065 15.899 0 21.964l-.006.006c-6.065 6.065-15.899 6.065-21.964 0z" fill="#d1a08f"/><path d="m183.526 393.693c-6.09 5.15-15.24 4.85-20.98-.9l-42.47-42.47c-6.07-6.06-6.07-15.9 0-21.96l.01-.01c5.74-5.74 14.89-6.04 20.98-.9-.34.29-.66.58-.98.9l-.01.01c-6.07 6.06-6.07 15.9 0 21.96 0 0 43.11 43.09 43.45 43.37z" fill="#c68d7a"/><path d="m154.841 313.683h57.618v31.071h-57.618z" fill="#68748f" transform="matrix(.707 -.707 .707 .707 -179.003 226.286)"/><path d="m452.006 308.843c-6.88 6.88-14.18 13.06-21.82 18.57-62.03 44.68-146.53 44.2-208.08-1.46-6.92-5.13-13.55-10.84-19.82-17.11-68.96-68.95-68.96-180.75 0-249.71s180.76-68.96 249.72 0 68.96 180.76 0 249.71z" fill="#68748f"/><path d="m272.106 325.953c24.08 17.86 51.66 28.81 80.04 32.83-44.96 6.41-91.9-4.54-130.04-32.83-6.92-5.13-13.55-10.84-19.82-17.11-68.96-68.95-68.96-180.75 0-249.71 40.86-40.86 96.75-57.51 149.86-49.95-36.3 5.16-71.31 21.64-99.32 49.42-.18.17-.36.35-.54.53-68.96 68.96-68.96 180.76 0 249.71.19.19.37.37.56.55 6.1 6.06 12.54 11.58 19.26 16.56z" fill="#5d6980"/><path d="m430.186 287.033c-56.91 56.9-149.17 56.9-206.08 0-.68-.68-1.34-1.36-2-2.04-54.9-57.05-54.23-147.82 2-204.04 56.91-56.91 149.17-56.91 206.08 0 56.91 56.9 56.91 149.17 0 206.08z" fill="#eaf6ff"/><path d="m252.846 309.393c-10.25-6.09-19.92-13.54-28.74-22.36-.68-.68-1.34-1.36-2-2.04-54.9-57.05-54.23-147.82 2-204.04 8.81-8.82 18.47-16.27 28.72-22.35-.18.17-.36.35-.54.53-68.96 68.96-68.96 180.76 0 249.71.19.19.37.37.56.55z" fill="#d8ecfe"/><path d="m430.186 264.513v22.52c-56.91 56.9-149.17 56.9-206.08 0-.68-.68-1.34-1.36-2-2.04v-20.48c0-11.4 7.25-21.55 18.05-25.24l57.62-19.71h56.74l57.62 19.71c10.8 3.69 18.05 13.84 18.05 25.24z" fill="#8ac9fe"/><path d="m342.146 328.943c-42.12 4.33-85.76-9.64-118.04-41.91-.68-.68-1.34-1.36-2-2.04v-20.48c0-11.4 7.25-21.55 18.05-25.24l57.62-19.71h30l-57.62 19.71c-10.8 3.69-18.05 13.84-18.05 25.24v20.48c.66.68 1.32 1.36 2 2.04 24.63 24.63 55.89 38.6 88.04 41.91z" fill="#60b7ff"/><path d="m277.453 131.231v59.084c0 24.838 20.135 44.973 44.973 44.973h7.434c24.838 0 44.973-20.135 44.973-44.973v-59.084c0-7.606-6.166-13.772-13.772-13.772h-69.834c-7.607 0-13.774 6.166-13.774 13.772z" fill="#ffcebf"/><path d="m336.146 234.853c-2.06.29-4.16.44-6.29.44h-7.43c-24.84 0-44.97-20.14-44.97-44.98v-59.08c0-7.61 6.16-13.77 13.77-13.77h20c-7.61 0-13.77 6.16-13.77 13.77v59.08c0 22.71 16.82 41.49 38.69 44.54z" fill="#ffb09e"/><path d="m277.453 146.623h19.521c7.441 0 14.553-3.064 19.664-8.472l13.357-14.134 8.675 15.13c2.651 4.624 7.575 7.477 12.905 7.477h23.257v-30.387c0-18.439-14.948-33.387-33.387-33.387h-30.605c-18.439 0-33.387 14.948-33.387 33.387z" fill="#fff"/><path d="m277.453 146.623h19.521c7.441 0 14.553-3.064 19.664-8.472l13.357-14.134 8.675 15.13c2.651 4.624 7.575 7.477 12.905 7.477h23.257v-30.387c0-18.439-14.948-33.387-33.387-33.387h-30.605c-18.439 0-33.387 14.948-33.387 33.387z" fill="#68748f"/><path d="m310.836 82.853h20c-18.43 0-33.38 14.94-33.38 33.38v30.38c-.16.01-.32.01-.48.01h-19.52v-30.39c0-18.44 14.95-33.38 33.38-33.38z" fill="#5d6980"/><g><path d="m503.654 192.874c-4.122-.373-7.776 2.655-8.157 6.78-3.609 39.143-20.938 76.037-48.795 103.885-65.924 65.924-173.189 65.923-239.114 0-31.935-31.931-49.523-74.387-49.523-119.547 0-45.161 17.588-87.62 49.523-119.556 65.924-65.924 173.19-65.924 239.114 0 27.858 27.858 45.187 64.759 48.795 103.905.38 4.125 4.034 7.164 8.157 6.78 4.125-.38 7.16-4.032 6.78-8.157-3.929-42.627-22.795-82.806-53.125-113.135-71.771-71.772-188.554-71.772-260.327 0-34.769 34.769-53.917 80.994-53.917 130.162 0 41.823 13.863 81.511 39.402 113.833l-30.173 30.174-4.945-4.945c-8.039-8.039-24.351-8.22-32.577.006-7.865 7.865-8.84 20.05-2.927 28.988l-100.402 100.402c-31.584 31.584 17.063 80.663 48.976 48.976l38.9-38.9c2.929-2.929 2.929-7.678 0-10.606-2.929-2.929-7.678-2.929-10.606 0l-38.9 38.9c-16.893 16.893-45.267-10.259-27.763-27.763l100.074-100.075 27.764 27.764-38.056 38.065c-2.929 2.929-2.928 7.678.001 10.606 2.93 2.93 7.679 2.929 10.606-.001l38.383-38.392c10.01 5.914 19.673 4.938 28.987-2.928 8.226-8.226 8.044-24.539.006-32.577l-4.945-4.945 30.402-30.402c32.88 25.199 72.369 37.803 111.873 37.803 47.133 0 94.281-17.947 130.162-53.828 30.329-30.319 49.196-70.491 53.126-113.116.381-4.124-2.654-7.775-6.779-8.156zm-324.445 194.609c-.013.013-.026.026-.039.04-3.134 3.098-8.204 3.086-11.325-.033l-42.466-42.466c-3.12-3.12-3.131-8.189-.034-11.323 2.881-2.881 8.56-2.879 11.398-.041l42.466 42.466c3.136 3.785 3.136 7.571 0 11.357zm-4.943-37.517-11.363-11.363 29.365-29.365c3.64 3.936 7.451 7.701 11.432 11.295z"/><path d="m221.578 94.761c2.678-3.16 2.287-7.893-.874-10.571-3.16-2.677-7.892-2.286-10.571.874-24.768 29.23-37.586 66.49-36.092 104.915 3.162 81.346 71.766 147.155 153.104 147.155 83.598 0 153.223-69.535 153.223-153.145 0-40.928-15.938-79.404-44.879-108.339-26.276-26.276-61.143-42.095-98.176-44.543-36.677-2.424-72.976 8.36-102.199 30.365-3.309 2.492-3.971 7.194-1.479 10.503s7.193 3.972 10.503 1.479c54.616-41.127 132.32-35.623 180.746 12.802 26.107 26.103 40.485 60.812 40.485 97.732 0 30.35-9.723 59.202-27.682 83.014.09-15.503-7.88-29.618-23.123-34.826l-40.385-13.815c5.157-8.12 8.158-17.738 8.158-28.049l-.003-74.077c0-22.545-18.342-40.887-40.887-40.887h-30.605c-22.545 0-40.887 18.342-40.887 40.887l.002 74.077c0 10.31 3 19.927 8.155 28.047l-40.381 13.816c-13.738 4.694-22.988 17.547-23.113 32.042-35.836-50.489-34.105-120.993 6.96-169.456zm63.378 95.552v-36.19h12.019c12.681 0 24.182-7.739 31.537-17.617 3.858 9.403 12.257 17.617 23.064 17.617h15.76v36.19c0 49.764-82.38 49.466-82.38 0zm-.002-74.077c0-14.274 11.613-25.887 25.887-25.887h30.605c14.274 0 25.887 11.613 25.887 25.887v22.887h-15.757c-2.636 0-5.088-1.42-6.399-3.707l-8.675-15.13c-2.544-4.437-8.571-5.005-11.958-1.421l-13.357 14.135c-3.677 3.892-8.858 6.124-14.212 6.124h-12.021zm-42.371 130.133 46.213-15.811c19.803 16.581 54.967 16.514 74.693.001l46.221 15.811c7.761 2.651 12.975 9.942 12.975 18.143v19.358c-53.986 51.664-139.897 51.016-193.08-1.95v-17.409c.001-8.2 5.215-15.491 12.978-18.143z"/></g></g></svg>