<svg id="Capa_1" enable-background="new 0 0 512 512" height="512" viewBox="0 0 512 512" width="512" xmlns="http://www.w3.org/2000/svg"><g><g><g><circle cx="234.717" cy="224.981" fill="#78d090" r="217.57"/></g><g><path d="m370.479 54.973c19.124 32.381 30.11 70.14 30.11 110.47 0 120.161-97.41 217.57-217.57 217.57-51.356 0-98.547-17.804-135.763-47.562 37.854 64.097 107.63 107.1 187.46 107.1 120.161 0 217.57-97.41 217.57-217.57.001-68.805-31.947-130.139-81.807-170.008z" fill="#66b49d"/></g></g><g><path d="m327.097 367.055-35.371 42.743c-2.83 3.419-7.851 4.002-11.389 1.321l-18.99-14.391c-38.11-28.881-72.08-62.851-100.961-100.961l-14.391-18.99c-2.681-3.537-2.098-8.559 1.321-11.389l42.743-35.371c7.525-6.227 8.06-17.579 1.153-24.486l-60.236-60.236c-6.472-6.472-16.965-6.472-23.437 0l-29.428 29.428c-19.698 19.698-28.825 47.606-24.572 75.136 4.135 26.77 14.769 52.119 30.971 73.827l5.296 7.096c38.696 51.846 84.679 97.83 136.525 136.525l7.096 5.296c21.708 16.202 47.057 26.836 73.827 30.971 27.53 4.253 55.439-4.874 75.136-24.572l29.428-29.428c6.472-6.472 6.472-16.965 0-23.437l-60.236-60.236c-6.905-6.906-18.257-6.371-24.485 1.154z" fill="#26457d"/></g><g><path d="m278.076 496.303c9.454 3.291 19.218 5.733 29.18 7.272 27.53 4.253 55.439-4.874 75.136-24.572l29.428-29.428c6.472-6.472 6.472-16.965 0-23.437l-19.016-19.016c-28.623 39.802-68.384 71.052-114.728 89.181z" fill="#21386b"/></g><g><path d="m175.38 242.166 14.68-12.148c7.525-6.227 8.06-17.58 1.153-24.486l-60.236-60.236c-6.472-6.472-16.965-6.472-23.437 0l-14.515 14.515z" fill="#4073c8"/></g><g><path d="m411.82 449.575c6.472-6.472 6.472-16.965 0-23.437l-60.236-60.236c-6.907-6.907-18.259-6.372-24.486 1.153l-12.148 14.68 82.355 82.355z" fill="#4073c8"/></g><g><path d="m397.304 464.09 14.515-14.515c6.472-6.472 6.472-16.965 0-23.437l-19.016-19.016c-7.267 10.105-15.254 19.657-23.883 28.585z" fill="#26457d"/></g><g><circle cx="322.854" cy="201.086" fill="#bed8fb" r="70.605"/></g><g><path d="m357.924 139.816c5.928 10.335 9.335 22.301 9.335 35.07 0 38.994-31.611 70.605-70.605 70.605-12.769 0-24.735-3.407-35.07-9.335 12.176 21.226 35.045 35.536 61.27 35.536 38.994 0 70.605-31.611 70.605-70.605 0-26.227-14.309-49.095-35.535-61.271z" fill="#9dc6fb"/></g><g><path d="m480.077 292.601c.177-3.112-.034-6.24-.634-9.344-2.361-12.213-10.611-22.323-21.911-27.225 1.427-10.227 2.167-20.598 2.167-31.051 0-60.095-23.402-116.592-65.895-159.085-42.495-42.494-98.993-65.896-159.088-65.896s-116.592 23.402-159.085 65.895-65.895 98.991-65.895 159.086c0 30.902 6.153 60.843 18.288 88.991 1.62 3.758 5.98 5.491 9.739 3.871 3.758-1.62 5.491-5.981 3.871-9.739-10.359-24.028-16.034-49.465-16.934-75.713h20.52c-.277 6.172.039 12.401.997 18.6 4.607 30.89 18.218 59.896 37.652 84.224 23.163 31.035 48.9 59.947 76.906 86.509-43.104-16.27-80.346-46.633-104.901-86.313-2.154-3.481-6.72-4.557-10.201-2.402-3.48 2.153-4.555 6.721-2.402 10.201 31.957 51.642 84 88.543 142.999 101.504 11.545 9.89 23.418 19.417 35.631 28.533 27.992 22.128 62.567 37.711 98.58 38.753 24.949-.001 49.286-9.891 67.152-27.757l29.428-29.427c8.404-8.083 9.354-22.273 2.186-31.404 10.318-5.749 17.438-16.083 18.945-27.991 16.631-2.075 29.896-15.19 32.323-31.455 16.501-2.59 29.705-16.116 31.534-33.071 1.754-16.265-7.329-31.727-21.972-38.294zm-103.708 87.606-19.545-19.545c-4.727-4.728-11.264-7.264-17.932-7.001 9.763-25.016 16.58-53.369 20-83.415 15.682-8.205 28.239-21.579 35.4-37.854h50.438c-1.991 56.363-26.61 109.686-68.361 147.815zm-53.515-115.927c-34.845 0-63.194-28.349-63.194-63.194 0-34.846 28.349-63.195 63.194-63.195s63.194 28.349 63.194 63.195c0 34.845-28.349 63.194-63.194 63.194zm0-141.211c-43.018 0-78.016 34.998-78.016 78.016 0 5.656.62 11.167 1.768 16.484h-4.479v-202.267c37.62 4.81 71.979 45.939 90.496 108.401-3.203-.402-6.458-.634-9.769-.634zm-95.548-107.772v202.273h-23.838c.085-6.447-2.441-12.705-7.015-17.279l-60.236-60.236c-.978-.978-2.033-1.83-3.126-2.604 8.847-35.816 22.839-66.236 40.631-88.17 16.19-19.959 34.579-31.58 53.584-33.984zm-114.526 135.238c3.572-3.572 9.385-3.572 12.957 0l60.236 60.236c3.802 3.624 3.488 10.286-.638 13.537l-9.484 7.848-72.346-72.346zm82.004 85.192c1.216-1.006 2.316-2.128 3.299-3.336h29.223v102.966c0 4.093 3.318 7.411 7.411 7.411s7.411-3.318 7.411-7.411v-102.966h9.29c12.086 27.472 39.55 46.71 71.437 46.71 7.033 0 13.844-.951 20.331-2.704-4.682 34.269-14.146 66.338-27.205 92.469l-29.962 36.207c-.3.362-.829.424-1.204.139l-18.99-14.391c-37.57-28.472-71.057-61.959-99.53-99.531l-14.392-18.989c-.284-.375-.222-.904.14-1.203zm249.947-18.157h-45.63c1.149-5.317 1.768-10.828 1.768-16.484 0-33.808-21.62-62.651-51.757-73.457-9.774-36.458-24.84-67.489-43.725-89.902-4.9-5.815-10.004-10.976-15.273-15.48 86.804 23.745 151.361 101.871 154.617 195.323zm-420.029 0c3.259-93.511 67.896-171.677 154.782-195.369-26.527 22.589-48.206 61.285-60.586 110.858-6.021.05-12.086 2.555-16.598 6.996l-29.428 29.428c-13.262 13.262-22.127 30.089-25.817 48.086h-22.353zm381.877 226.765-9.275 9.275-37.025-37.024c-2.894-2.894-7.586-2.894-10.48 0s-2.894 7.586 0 10.48l37.025 37.024-9.673 9.673c-17.959 17.958-43.668 26.366-68.765 22.488-25.478-3.936-49.866-14.167-70.526-29.587l-7.095-5.296c-51.303-38.29-96.73-83.718-135.019-135.019-17.962-22.411-30.654-49.111-34.883-77.622-3.877-25.1 4.529-50.806 22.488-68.765l9.673-9.673 71.357 71.357-21.79 18.032c-6.496 5.376-7.596 14.852-2.503 21.574l14.392 18.99c29.292 38.652 63.741 73.101 102.391 102.392l18.99 14.391c6.721 5.094 16.197 3.995 21.575-2.502l18.031-21.789 11.822 11.822c2.894 2.894 7.586 2.894 10.48 0s2.894-7.586 0-10.48l-12.811-12.811 7.849-9.485c3.252-4.125 9.907-4.441 13.537-.637l60.236 60.236c3.554 3.41 3.553 9.546-.001 12.956zm80.734-115.03c-1.206 11.178-10.575 19.895-21.794 20.275-5.096.173-9.224 4.297-9.397 9.388-.28 12.09-10.621 22.034-22.708 21.937-5.376.002-9.747 4.373-9.745 9.745.006 9.794-6.219 18.373-15.36 21.496l-21.447-21.447c34.788-31.96 58.383-73.806 67.987-119.349 7.54 4.761 11.771 14.156 10.14 22.955-.815 4.761 2.034 9.45 6.626 10.905 10.251 3.252 16.853 13.386 15.698 24.095z"/><path d="m345.913 178.572-33.554 33.554-15.538-15.538c-2.894-2.894-7.586-2.894-10.48 0s-2.894 7.586 0 10.48l17.99 17.99c4.426 4.427 11.63 4.427 16.056 0l36.007-36.007c2.894-2.894 2.894-7.586 0-10.48-2.895-2.893-7.587-2.893-10.481.001z"/></g></g></svg>